# xmcd
# 
# Track frame offsets:
#     150
#     15963
#     40810
#     91280
#     148788
#     206698
#     248705
# 
# Disc length: 3847
# 
# Revision: 0
# Processed by: cddbd v1.5.2PL0 Copyright (c) Steve Scherf et al.
# Submitted via: BonkEnc v1.0.15
# 
DISCID=540f0507
DTITLE=Richard Wagner - Lohengrin CD 4
DYEAR=1951
DGENRE=opera
TTITLE0=Vorspiel 3. Akt
TTITLE1=Treulich geführt
TTITLE2=Das süße Lied verhallt
TTITLE3=Höchstes Vertraun hast du mir schon zu danken
TTITLE4=Heil, König Heinrich! König Heinrich, Heil!
TTITLE5=In fernem Land unnahbar euren Schritten
TTITLE6=Mein lieber Schwan!
EXTD=
EXTT0=
EXTT1=
EXTT2=
EXTT3=
EXTT4=
EXTT5=
EXTT6=
PLAYORDER=
